<?xml version="1.0" encoding="utf-8"?>
<!-- Generator: Adobe Illustrator 28.1.0, SVG Export Plug-In . SVG Version: 6.00 Build 0)  -->
<svg version="1.1" id="Layer_1" xmlns="http://www.w3.org/2000/svg" xmlns:xlink="http://www.w3.org/1999/xlink" x="0px" y="0px"
width="308.7612359841165"
   height="304.915625"
	 viewBox="0 0 308.9 304.6" style="enable-background:new 0 0 308.9 304.6;" xml:space="preserve">
<style type="text/css">
	.st0{fill-rule:evenodd;clip-rule:evenodd;fill:#FFFFFF;stroke:#009DE2;stroke-width:2.0001;stroke-miterlimit:22.9256;}
	.st1{fill-rule:evenodd;clip-rule:evenodd;fill:#009DE2;stroke:#009DE2;stroke-width:0.9726;stroke-miterlimit:22.9256;}
	.st2{fill-rule:evenodd;clip-rule:evenodd;fill:#009DE2;stroke:#009DE2;stroke-width:0.6814;stroke-miterlimit:22.9256;}
	.st3{fill-rule:evenodd;clip-rule:evenodd;fill:#009DE2;}
	.st4{fill-rule:evenodd;clip-rule:evenodd;fill:#FFFFFF;}
</style>
<g>
	<g>
		<polygon class="st0" points="142.1,133.3 170.2,133.3 179.8,106.9 151.7,106.9 		"/>
		<polygon class="st0" points="49.8,141.2 11.4,246.7 37.8,246.7 76.2,141.2 		"/>
		<polygon class="st0" points="119.2,106.9 77.6,220.4 77.5,220.4 67.9,246.7 94.2,246.7 162.5,246.7 172.1,220.4 103.9,220.4 
			145.6,106.9 		"/>
		<polygon class="st0" points="3.1,133.3 103.3,133.3 113,106.9 12.7,106.9 		"/>
		<polygon class="st0" points="175.7,133.3 203.8,133.3 213.4,106.9 185.3,106.9 		"/>
	</g>
	<g>
		<path class="st1" d="M43,62.2h-6.2L26,92.4h-4l10.8-30.1h-6.1l1.4-3.9h16.3L43,62.2L43,62.2z M45.2,68l-8.7,24.4h4l3.8-10.5h8.3
			l-3.8,10.5h4L61.5,68c0.5-1.3,0.8-2.5,1.1-3.7c0.2-1.2,0.2-2.2-0.1-3.1c-0.3-0.9-0.9-1.6-1.8-2.1c-0.9-0.5-2.3-0.8-4.2-0.8
			c-1.2,0-2.4,0.2-3.5,0.5c-1.1,0.3-2.1,0.9-3.1,1.7c-0.9,0.8-1.8,1.8-2.6,3C46.5,64.7,45.8,66.2,45.2,68L45.2,68z M45.7,77.8
			l3.5-9.8c0.4-1.2,0.9-2.2,1.4-3c0.5-0.8,1-1.4,1.5-1.9c0.5-0.5,1.1-0.8,1.7-1c0.6-0.2,1.2-0.3,1.8-0.3c0.6,0,1.2,0.1,1.6,0.3
			c0.5,0.2,0.8,0.5,1,1c0.2,0.5,0.3,1.1,0.2,1.9c-0.1,0.8-0.3,1.8-0.8,3L54,77.8H45.7L45.7,77.8z M76.4,58.3L64.2,92.4h-4l12.2-34.1
			H76.4L76.4,58.3z M96,62.2l1.4-3.9H81.1l-1.4,3.9h6.1L75,92.4h4l10.8-30.1H96L96,62.2z M108.7,58.3L96.5,92.4h-4l12.2-34.1H108.7
			L108.7,58.3z M116.1,92.4l1.3-3.6h-6.3c-0.7,0-1.3-0.1-1.8-0.3c-0.5-0.2-0.9-0.5-1.1-0.9c-0.2-0.5-0.3-1.1-0.2-1.9
			c0.1-0.8,0.3-1.8,0.7-3l8.8-24.5h-4l-8.8,24.4c-0.5,1.3-0.8,2.5-1.1,3.7c-0.2,1.2-0.2,2.2,0.1,3.1c0.3,0.9,0.9,1.6,1.8,2.1
			c0.9,0.5,2.4,0.8,4.3,0.8H116.1z"/>
		<path class="st2" d="M129.9,85.6c-0.3,0.8-0.5,1.5-0.5,2.1c-0.1,0.5,0,1,0.1,1.3c0.1,0.3,0.4,0.6,0.7,0.7c0.3,0.1,0.7,0.2,1.1,0.2
			c0.4,0,0.9-0.1,1.3-0.2c0.4-0.1,0.8-0.3,1.2-0.7c0.4-0.3,0.7-0.8,1.1-1.3c0.3-0.6,0.6-1.3,0.9-2.2h2.8c-0.3,0.9-0.7,1.8-1.1,2.6
			c-0.4,0.8-0.9,1.6-1.6,2.2c-0.6,0.6-1.4,1.1-2.3,1.5c-0.9,0.4-2.1,0.5-3.4,0.5c-0.9,0-1.6-0.1-2.2-0.4c-0.6-0.2-1-0.6-1.3-1.2
			c-0.3-0.5-0.4-1.2-0.3-2.1c0.1-0.9,0.3-1.9,0.8-3.2l3.8-10.6c0.4-1.2,0.9-2.2,1.5-3.1c0.6-0.8,1.2-1.5,1.8-2
			c0.7-0.5,1.4-0.9,2.1-1.1c0.8-0.2,1.6-0.3,2.4-0.3c1.3,0,2.3,0.2,3,0.5c0.7,0.4,1.1,0.9,1.3,1.5c0.2,0.6,0.2,1.4,0,2.2
			c-0.2,0.8-0.4,1.7-0.8,2.6h-2.8c0.6-1.7,0.8-2.8,0.4-3.4c-0.3-0.6-0.9-0.9-1.8-0.9c-0.4,0-0.8,0.1-1.2,0.2
			c-0.4,0.1-0.8,0.4-1.1,0.7c-0.4,0.3-0.7,0.7-1,1.2c-0.3,0.5-0.6,1.2-1,1.9L129.9,85.6L129.9,85.6z M161,68.5h-2.8l-4.9,13.7h-5.8
			l4.9-13.7h-2.8L141,92.4h2.8l2.6-7.4h5.8l-2.6,7.4h2.8L161,68.5L161,68.5z M177.7,68.5l-8.6,23.9h-2.8L169,85h-5.8l-2.6,7.4h-2.8
			l8.6-23.9h2.8l-4.9,13.7h5.8l4.9-13.7H177.7L177.7,68.5z M184.8,83.4l1-2.8l-5,1.4l2.4-6.8c0.3-0.8,0.6-1.5,0.9-2.1
			c0.3-0.5,0.7-1,1.1-1.3c0.4-0.3,0.8-0.6,1.2-0.7c0.4-0.1,0.8-0.2,1.3-0.2c0.4,0,0.8,0.1,1.1,0.2c0.3,0.1,0.6,0.4,0.7,0.7
			c0.1,0.3,0.2,0.8,0.1,1.3c-0.1,0.6-0.3,1.3-0.6,2.1h2.8c0.3-0.9,0.6-1.8,0.8-2.6c0.2-0.8,0.2-1.6,0-2.2c-0.2-0.6-0.6-1.1-1.3-1.5
			c-0.7-0.4-1.7-0.5-3-0.5c-0.9,0-1.7,0.1-2.4,0.4c-0.8,0.2-1.5,0.6-2.1,1.2c-0.7,0.5-1.3,1.2-1.8,2.1c-0.6,0.9-1.1,1.9-1.5,3.2
			l-3.7,10.3c-0.5,1.3-0.8,2.3-0.8,3.2c-0.1,0.9,0,1.6,0.3,2.1c0.3,0.5,0.7,0.9,1.3,1.2c0.6,0.2,1.3,0.4,2.2,0.4
			c1.3,0,2.5-0.2,3.4-0.5c0.9-0.4,1.7-0.9,2.3-1.5c0.6-0.6,1.2-1.4,1.6-2.2c0.4-0.8,0.8-1.7,1.1-2.6h-2.8c-0.3,0.9-0.6,1.6-0.9,2.1
			c-0.3,0.6-0.7,1-1.1,1.3c-0.4,0.3-0.8,0.6-1.2,0.7c-0.4,0.1-0.8,0.2-1.3,0.2c-0.4,0-0.8-0.1-1.1-0.2c-0.3-0.1-0.5-0.4-0.7-0.7
			c-0.1-0.3-0.2-0.8-0.1-1.3c0-0.5,0.2-1.2,0.5-2l0.3-0.8L184.8,83.4L184.8,83.4z M204.9,68.5c0.8,0,1.6,0.1,2.2,0.4
			c0.6,0.2,1.1,0.6,1.3,1.2c0.3,0.5,0.4,1.2,0.3,2.1c-0.1,0.9-0.3,1.9-0.8,3.2l-3.8,10.6c-0.4,1.2-0.9,2.2-1.5,3
			c-0.5,0.8-1.1,1.5-1.8,2c-0.7,0.5-1.4,0.9-2.1,1.1c-0.7,0.2-1.5,0.3-2.4,0.3h-6l8.6-23.9H204.9L204.9,68.5z M197.1,89.9
			c0.4,0,0.8-0.1,1.2-0.2c0.4-0.1,0.8-0.4,1.1-0.7c0.4-0.3,0.7-0.7,1-1.2c0.3-0.5,0.6-1.2,1-1.9l3.8-10.6c0.3-0.8,0.5-1.5,0.5-2.1
			c0.1-0.5,0-1-0.1-1.3c-0.1-0.3-0.4-0.6-0.7-0.7c-0.3-0.1-0.7-0.2-1.1-0.2h-3l-6.8,18.9H197.1L197.1,89.9z M213.2,75.3l-6.1,17.1
			h2.8l2.6-7.4h5.8l-2.6,7.4h2.8l6.1-17.1c0.3-0.9,0.6-1.8,0.8-2.6c0.2-0.8,0.2-1.6,0-2.2c-0.2-0.6-0.6-1.1-1.3-1.5
			c-0.7-0.4-1.6-0.5-3-0.5c-0.9,0-1.7,0.1-2.5,0.4c-0.8,0.2-1.5,0.6-2.2,1.2c-0.7,0.5-1.3,1.2-1.8,2.1
			C214.1,73,213.6,74.1,213.2,75.3L213.2,75.3z M213.5,82.1l2.5-6.9c0.3-0.8,0.6-1.5,1-2.1c0.3-0.5,0.7-1,1.1-1.3
			c0.4-0.3,0.8-0.6,1.2-0.7c0.4-0.1,0.8-0.2,1.3-0.2c0.4,0,0.8,0.1,1.1,0.2c0.3,0.1,0.6,0.4,0.7,0.7c0.1,0.3,0.2,0.8,0.1,1.3
			c-0.1,0.5-0.2,1.2-0.6,2.1l-2.5,6.9H213.5z"/>
	</g>
	<path class="st3" d="M295.8,64.5L277,68.6l-13.3-2l-35.5,53l18.7-15.9l0.5,23.7l9.8-21.1l6.8,24.7l4.6-24.2l13,21.2l0.4-50.6
		l15.4-6.6l8.8,2L295.8,64.5z M269.9,76.7c0.2,0.3,0.3,0.7,0.4,1.1c0.3,1.7-0.8,3.4-2.5,3.7c-1.3,0.3-2.6-0.3-3.3-1.4
		c-1.9,1.3-4,2.5-6.5,4.1l4.9-7.6l11.8-4.7c-1.8,1.8-3.4,3.2-5.1,4.5C269.8,76.5,269.9,76.6,269.9,76.7z"/>
	<polygon class="st4" points="286.7,145.5 270.4,118.6 273.9,146.6 265.1,175.8 	"/>
	<polygon class="st4" points="263.4,161.4 255.4,120.8 249.9,156.9 223.2,188.7 	"/>
	<polygon class="st4" points="242.1,154.6 242.3,113.9 228.6,147.2 197,176 	"/>
	<polygon class="st4" points="216.5,147.3 228.3,119.6 209.3,138.8 181,152.3 	"/>
	<polygon class="st3" points="212.5,142.5 228.3,119.6 209.3,138.8 181,152.3 	"/>
	<polygon class="st3" points="242.3,113.9 228.6,147.2 197,176 234.5,149.5 	"/>
	<polygon class="st3" points="255.4,120.8 249.9,156.9 223.2,188.7 256.2,157.7 	"/>
	<polygon class="st3" points="270.4,118.6 273.9,146.6 265.1,175.8 279.4,146 	"/>
	<polygon class="st4" points="284.8,120.6 291.5,80.7 304.2,75.3 298,73.8 285.1,79.4 	"/>
</g>
</svg>
